<svg xmlns="http://www.w3.org/2000/svg" viewBox="0 0 512 512">
  <defs>
    <linearGradient id="bg1" x1="70" y1="40" x2="450" y2="470" gradientUnits="userSpaceOnUse">
      <stop offset="0" stop-color="#061C3D"/>
      <stop offset="0.55" stop-color="#0F766E"/>
      <stop offset="1" stop-color="#14532D"/>
    </linearGradient>
    <linearGradient id="m1" x1="130" y1="110" x2="390" y2="400" gradientUnits="userSpaceOnUse">
      <stop offset="0" stop-color="#FDE68A"/>
      <stop offset="0.45" stop-color="#5EEAD4"/>
      <stop offset="1" stop-color="#38BDF8"/>
    </linearGradient>
  </defs>
  <rect width="512" height="512" rx="116" fill="url(#bg1)"/>
  <path d="M150 130H330C357 130 378 151 378 178V334C378 361 357 382 330 382H182L132 418L144 365C127 356 116 338 116 317V178C116 151 137 130 150 130Z"
        fill="none" stroke="url(#m1)" stroke-width="26" stroke-linejoin="round"/>
  <path d="M175 205H300" stroke="#ECFEFF" stroke-width="18" stroke-linecap="round"/>
  <path d="M175 255H270" stroke="#ECFEFF" stroke-width="18" stroke-linecap="round" opacity=".88"/>
  <path d="M175 305H235" stroke="#ECFEFF" stroke-width="18" stroke-linecap="round" opacity=".72"/>
  <circle cx="342" cy="310" r="58" fill="#0B1220" stroke="url(#m1)" stroke-width="20"/>
  <path d="M314 310L335 331L374 285" fill="none" stroke="#BBF7D0" stroke-width="18" stroke-linecap="round" stroke-linejoin="round"/>
  <path d="M385 98L395 124L421 134L395 144L385 170L375 144L349 134L375 124L385 98Z" fill="#FDE68A"/>
</svg>